<svg version="1" xmlns="http://www.w3.org/2000/svg" width="426.667" height="426.667" viewBox="0 0 320.000000 320.000000"><path d="M29 81.1c-12.5 1.4-17.3 3-18.8 6.2-1.9 3.9-.8 9 2.6 12 1.5 1.4 4.6 4.1 6.9 6.2 4.9 4.2 6 7.2 9.8 24.5 3.2 14.6 7.3 26.1 11.6 32 5.8 8 16.8 11 39.9 11 17.5 0 31.6-2.1 38.2-5.7 11.1-6.1 18-18 23.2-40.6 1.9-8 3.9-15.4 4.5-16.5 2.9-5.4 17.8-7 23.8-2.6 3.1 2.3 3.9 4.5 7.7 21.1 4.2 18.7 11 31 20.2 37.2 7.8 5.1 16.9 6.6 40.4 6.6 18.4 0 21.2-.2 27.5-2.2 4.8-1.5 8-3.3 10.2-5.5 6.2-6.4 11.1-20 16.8-46.1 1.8-8.3 2.9-9.9 13.3-18.8 3.7-3.1 4.2-4.1 4.2-7.6 0-6.2-.7-7.2-6.4-8.8-18-5.2-86.8-4.5-115.1 1.1-13.8 2.8-44.9 2.6-61.5-.3-6.9-1.2-18.8-2.7-26.6-3.3-16.2-1.2-61.4-1.1-72.4.1zM75.8 211.5c-1.5 3.4 1.9 8.4 14.6 21.1 20.4 20.3 42 29.5 69.6 29.5 27.6 0 49.2-9.2 69.6-29.5 12.7-12.7 16.1-17.7 14.6-21.1-1.6-3.4-5.3-3.2-10.8.5-7.2 5-23.4 12.7-34.5 16.4-27 9.1-53.9 8.8-80.9-1-8.8-3.1-25.7-11.4-31.7-15.5-5.2-3.6-8.9-3.8-10.5-.4z"/></svg>